<svg width="18" height="45" viewBox="0 0 18 45" fill="none" xmlns="http://www.w3.org/2000/svg">
<mask id="path-1-outside-1_1152_909" maskUnits="userSpaceOnUse" x="-1" y="-1" width="19" height="42" fill="black">
<rect fill="white" x="-1" y="-1" width="19" height="42"/>
<path d="M9.21256 40V3.6L12.4046 6.904H0.924563V0.799997H16.4926V40H9.21256Z"/>
</mask>
<path d="M9.21256 40H8.21256V41H9.21256V40ZM9.21256 3.6L9.93175 2.90519L8.21256 1.12567V3.6H9.21256ZM12.4046 6.904V7.904H14.7611L13.1238 6.20919L12.4046 6.904ZM0.924562 6.904H-0.0754375V7.904H0.924562V6.904ZM0.924562 0.799997V-0.200003H-0.0754375V0.799997H0.924562ZM16.4926 0.799997H17.4926V-0.200003H16.4926V0.799997ZM16.4926 40V41H17.4926V40H16.4926ZM10.2126 40V3.6H8.21256V40H10.2126ZM8.49337 4.29481L11.6854 7.59881L13.1238 6.20919L9.93175 2.90519L8.49337 4.29481ZM12.4046 5.904H0.924562V7.904H12.4046V5.904ZM1.92456 6.904V0.799997H-0.0754375V6.904H1.92456ZM0.924562 1.8H16.4926V-0.200003H0.924562V1.8ZM15.4926 0.799997V40H17.4926V0.799997H15.4926ZM16.4926 39H9.21256V41H16.4926V39Z" fill="#262626" mask="url(#path-1-outside-1_1152_909)"/>
</svg>
