<svg width="32" height="47" viewBox="0 0 32 45" fill="none" xmlns="http://www.w3.org/2000/svg">
<mask id="path-1-outside-1_1152_723" maskUnits="userSpaceOnUse" x="-1" y="-1" width="34" height="42" fill="black">
<rect fill="white" x="-1" y="-1" width="34" height="42"/>
<path d="M2.43656 40V35.128L18.0046 20.344C19.3112 19.112 20.2819 18.0293 20.9166 17.096C21.5512 16.1627 21.9619 15.304 22.1486 14.52C22.3726 13.6987 22.4846 12.9333 22.4846 12.224C22.4846 10.432 21.8686 9.05066 20.6366 8.08C19.4046 7.072 17.5939 6.568 15.2046 6.568C13.3006 6.568 11.5646 6.904 9.99656 7.576C8.4659 8.248 7.14056 9.27466 6.02056 10.656L0.924563 6.736C2.45523 4.68266 4.50856 3.096 7.08456 1.976C9.6979 0.818665 12.6099 0.239998 15.8206 0.239998C18.6579 0.239998 21.1219 0.706664 23.2126 1.64C25.3406 2.536 26.9646 3.824 28.0846 5.504C29.2419 7.184 29.8206 9.18133 29.8206 11.496C29.8206 12.7653 29.6526 14.0347 29.3166 15.304C28.9806 16.536 28.3459 17.8427 27.4126 19.224C26.4792 20.6053 25.1166 22.1547 23.3246 23.872L9.94056 36.584L8.42856 33.84H31.3326V40H2.43656Z"/>
</mask>
<path d="M2.43656 40H1.43656V41H2.43656V40ZM2.43656 35.128L1.74795 34.4029L1.43656 34.6986V35.128H2.43656ZM18.0046 20.344L17.3185 19.6164L17.316 19.6189L18.0046 20.344ZM20.9166 17.096L20.0896 16.5337L20.9166 17.096ZM22.1486 14.52L21.1838 14.2569L21.1795 14.2726L21.1758 14.2884L22.1486 14.52ZM20.6366 8.08L20.0033 8.85395L20.0105 8.85979L20.0177 8.86549L20.6366 8.08ZM9.99656 7.576L9.60263 6.65682L9.59457 6.66035L9.99656 7.576ZM6.02056 10.656L5.41085 11.4486L6.18344 12.0429L6.79732 11.2858L6.02056 10.656ZM0.924562 6.736L0.122817 6.13833L-0.465885 6.92805L0.314852 7.52862L0.924562 6.736ZM7.08456 1.976L7.4833 2.89309L7.48949 2.89035L7.08456 1.976ZM23.2126 1.64L22.8049 2.55313L22.8147 2.55749L22.8245 2.56163L23.2126 1.64ZM28.0846 5.504L27.2525 6.0587L27.2567 6.06503L27.2611 6.0713L28.0846 5.504ZM29.3166 15.304L30.2814 15.5671L30.2833 15.5599L29.3166 15.304ZM23.3246 23.872L24.0132 24.5971L24.0165 24.594L23.3246 23.872ZM9.94056 36.584L9.06473 37.0666L9.68992 38.2012L10.6292 37.3091L9.94056 36.584ZM8.42856 33.84V32.84H6.73578L7.55272 34.3226L8.42856 33.84ZM31.3326 33.84H32.3326V32.84H31.3326V33.84ZM31.3326 40V41H32.3326V40H31.3326ZM3.43656 40V35.128H1.43656V40H3.43656ZM3.12518 35.8531L18.6932 21.0691L17.316 19.6189L1.74795 34.4029L3.12518 35.8531ZM18.6906 21.0716C20.023 19.8153 21.0513 18.6762 21.7435 17.6583L20.0896 16.5337C19.5124 17.3825 18.5995 18.4087 17.3186 19.6164L18.6906 21.0716ZM21.7435 17.6583C22.4212 16.6617 22.8977 15.6908 23.1214 14.7516L21.1758 14.2884C21.026 14.9172 20.6813 15.6636 20.0896 16.5337L21.7435 17.6583ZM23.1133 14.7831C23.3562 13.8926 23.4846 13.0379 23.4846 12.224H21.4846C21.4846 12.8288 21.3889 13.5048 21.1838 14.2569L23.1133 14.7831ZM23.4846 12.224C23.4846 10.175 22.7644 8.4834 21.2554 7.29451L20.0177 8.86549C20.9727 9.61793 21.4846 10.689 21.4846 12.224H23.4846ZM21.2698 7.30604C19.7888 6.09432 17.7137 5.568 15.2046 5.568V7.568C17.4741 7.568 19.0203 8.04968 20.0033 8.85395L21.2698 7.30604ZM15.2046 5.568C13.1809 5.568 11.3088 5.92563 9.60264 6.65685L10.3905 8.49514C11.8203 7.88236 13.4202 7.568 15.2046 7.568V5.568ZM9.59457 6.66035C7.90872 7.40048 6.45759 8.52919 5.24381 10.0262L6.79732 11.2858C7.82353 10.0201 9.02307 9.09551 10.3986 8.49164L9.59457 6.66035ZM6.63027 9.86337L1.53427 5.94337L0.314852 7.52862L5.41085 11.4486L6.63027 9.86337ZM1.72631 7.33366C3.14288 5.43338 5.05128 3.95046 7.48329 2.89307L6.68584 1.05893C3.96585 2.24153 1.76758 3.93195 0.122817 6.13833L1.72631 7.33366ZM7.48949 2.89035C9.96043 1.79607 12.7321 1.24 15.8206 1.24V-0.760002C12.4877 -0.760002 9.43536 -0.158743 6.67964 1.06165L7.48949 2.89035ZM15.8206 1.24C18.5501 1.24 20.8693 1.68904 22.8049 2.55313L23.6202 0.726858C21.3745 -0.275713 18.7657 -0.760002 15.8206 -0.760002V1.24ZM22.8245 2.56163C24.7984 3.39276 26.2564 4.56446 27.2525 6.0587L28.9166 4.9493C27.6728 3.08354 25.8827 1.67924 23.6006 0.718362L22.8245 2.56163ZM27.2611 6.0713C28.2884 7.5626 28.8206 9.35569 28.8206 11.496H30.8206C30.8206 9.00697 30.1954 6.80539 28.9081 4.93669L27.2611 6.0713ZM28.8206 11.496C28.8206 12.676 28.6645 13.8594 28.3499 15.0481L30.2833 15.5599C30.6406 14.2099 30.8206 12.8546 30.8206 11.496H28.8206ZM28.3518 15.0409C28.0519 16.1405 27.4737 17.3474 26.584 18.6641L28.2412 19.7839C29.2181 18.3379 29.9092 16.9315 30.2813 15.5671L28.3518 15.0409ZM26.584 18.6641C25.7045 19.9658 24.3957 21.4604 22.6327 23.15L24.0165 24.594C25.8374 22.8489 27.254 21.2449 28.2412 19.7839L26.584 18.6641ZM22.6359 23.1469L9.25189 35.8589L10.6292 37.3091L24.0132 24.5971L22.6359 23.1469ZM10.8164 36.1014L9.3044 33.3574L7.55272 34.3226L9.06473 37.0666L10.8164 36.1014ZM8.42856 34.84H31.3326V32.84H8.42856V34.84ZM30.3326 33.84V40H32.3326V33.84H30.3326ZM31.3326 39H2.43656V41H31.3326V39Z" fill="#262626" mask="url(#path-1-outside-1_1152_723)"/>
</svg>
