<svg width="36" height="45" viewBox="0 0 36 45" fill="none" xmlns="http://www.w3.org/2000/svg">
<mask id="path-1-outside-1_1152_728" maskUnits="userSpaceOnUse" x="-1" y="-1" width="33" height="43" fill="black">
<rect fill="white" x="-1" y="-1" width="33" height="43"/>
<path d="M15.2606 40.56C12.4979 40.56 9.79123 40.168 7.14056 39.384C4.52723 38.5627 2.32456 37.4427 0.532563 36.024L3.66856 30.368C5.08723 31.5253 6.80456 32.4587 8.82056 33.168C10.8366 33.8773 12.9459 34.232 15.1486 34.232C17.7619 34.232 19.7966 33.7093 21.2526 32.664C22.7086 31.5813 23.4366 30.1253 23.4366 28.296C23.4366 26.504 22.7646 25.0853 21.4206 24.04C20.0766 22.9947 17.9112 22.472 14.9246 22.472H11.3406V17.488L22.5406 4.16L23.4926 6.904H2.43656V0.799997H29.1486V5.672L17.9486 19L14.1406 16.76H16.3246C21.1406 16.76 24.7432 17.8427 27.1326 20.008C29.5592 22.136 30.7726 24.88 30.7726 28.24C30.7726 30.4427 30.2126 32.4773 29.0926 34.344C27.9726 36.2107 26.2552 37.7227 23.9406 38.88C21.6632 40 18.7699 40.56 15.2606 40.56Z"/>
</mask>
<path d="M7.14056 39.384L6.84074 40.338L6.84881 40.3405L6.85693 40.3429L7.14056 39.384ZM0.532562 36.024L-0.342003 35.5391L-0.753518 36.2813L-0.0881405 36.808L0.532562 36.024ZM3.66856 30.368L4.30069 29.5931L3.37395 28.8371L2.794 29.8831L3.66856 30.368ZM8.82056 33.168L9.15247 32.2247L8.82056 33.168ZM21.2526 32.664L21.8358 33.4763L21.8426 33.4714L21.8493 33.4665L21.2526 32.664ZM21.4206 24.04L22.0345 23.2506L21.4206 24.04ZM11.3406 22.472H10.3406V23.472H11.3406V22.472ZM11.3406 17.488L10.575 16.8447L10.3406 17.1236V17.488H11.3406ZM22.5406 4.16L23.4853 3.83223L22.908 2.16831L21.775 3.51665L22.5406 4.16ZM23.4926 6.904V7.904H24.898L24.4373 6.57623L23.4926 6.904ZM2.43656 6.904H1.43656V7.904H2.43656V6.904ZM2.43656 0.799997V-0.200003H1.43656V0.799997H2.43656ZM29.1486 0.799997H30.1486V-0.200003H29.1486V0.799997ZM29.1486 5.672L29.9141 6.31534L30.1486 6.03638V5.672H29.1486ZM17.9486 19L17.4415 19.8619L18.1702 20.2906L18.7141 19.6433L17.9486 19ZM14.1406 16.76V15.76H10.4683L13.6335 17.6219L14.1406 16.76ZM27.1326 20.008L26.461 20.749L26.4671 20.7545L26.4732 20.7599L27.1326 20.008ZM29.0926 34.344L29.9501 34.8585L29.0926 34.344ZM23.9406 38.88L24.3819 39.7774L24.3878 39.7744L23.9406 38.88ZM15.2606 39.56C12.594 39.56 9.98283 39.1818 7.42419 38.4251L6.85693 40.3429C9.59963 41.1542 12.4018 41.56 15.2606 41.56V39.56ZM7.44039 38.43C4.92095 37.6382 2.83265 36.5695 1.15326 35.24L-0.0881405 36.808C1.81647 38.3159 4.1335 39.4871 6.84074 40.338L7.44039 38.43ZM1.40713 36.5089L4.54313 30.8529L2.794 29.8831L-0.342003 35.5391L1.40713 36.5089ZM3.03644 31.1429C4.55828 32.3844 6.38148 33.3699 8.48866 34.1113L9.15247 32.2247C7.22764 31.5474 5.61617 30.6663 4.30069 29.5931L3.03644 31.1429ZM8.48866 34.1113C10.6146 34.8593 12.8364 35.232 15.1486 35.232V33.232C13.0554 33.232 11.0586 32.8954 9.15247 32.2247L8.48866 34.1113ZM15.1486 35.232C17.8795 35.232 20.148 34.688 21.8358 33.4763L20.6694 31.8517C19.4451 32.7306 17.6443 33.232 15.1486 33.232V35.232ZM21.8493 33.4665C23.5615 32.1933 24.4366 30.4385 24.4366 28.296H22.4366C22.4366 29.8122 21.8557 30.9694 20.6559 31.8615L21.8493 33.4665ZM24.4366 28.296C24.4366 26.2142 23.6366 24.4967 22.0345 23.2506L20.8066 24.8293C21.8926 25.674 22.4366 26.7938 22.4366 28.296H24.4366ZM22.0345 23.2506C20.4251 21.9989 17.9837 21.472 14.9246 21.472V23.472C17.8387 23.472 19.728 23.9904 20.8066 24.8293L22.0345 23.2506ZM14.9246 21.472H11.3406V23.472H14.9246V21.472ZM12.3406 22.472V17.488H10.3406V22.472H12.3406ZM12.1061 18.1313L23.3061 4.80334L21.775 3.51665L10.575 16.8447L12.1061 18.1313ZM21.5958 4.48777L22.5478 7.23177L24.4373 6.57623L23.4853 3.83223L21.5958 4.48777ZM23.4926 5.904H2.43656V7.904H23.4926V5.904ZM3.43656 6.904V0.799997H1.43656V6.904H3.43656ZM2.43656 1.8H29.1486V-0.200003H2.43656V1.8ZM28.1486 0.799997V5.672H30.1486V0.799997H28.1486ZM28.383 5.02865L17.183 18.3567L18.7141 19.6433L29.9141 6.31534L28.383 5.02865ZM18.4556 18.1381L14.6476 15.8981L13.6335 17.6219L17.4415 19.8619L18.4556 18.1381ZM14.1406 17.76H16.3246V15.76H14.1406V17.76ZM16.3246 17.76C21.0119 17.76 24.3283 18.8162 26.461 20.749L27.8041 19.267C25.1582 16.8692 21.2693 15.76 16.3246 15.76V17.76ZM26.4732 20.7599C28.6735 22.6893 29.7726 25.1545 29.7726 28.24H31.7726C31.7726 24.6055 30.445 21.5827 27.7919 19.2561L26.4732 20.7599ZM29.7726 28.24C29.7726 30.2637 29.2607 32.1202 28.2351 33.8295L29.9501 34.8585C31.1645 32.8345 31.7726 30.6216 31.7726 28.24H29.7726ZM28.2351 33.8295C27.2301 35.5045 25.6704 36.897 23.4934 37.9856L24.3878 39.7744C26.84 38.5483 28.715 36.9169 29.9501 34.8585L28.2351 33.8295ZM23.4992 37.9827C21.4014 39.0144 18.6721 39.56 15.2606 39.56V41.56C18.8677 41.56 21.925 40.9856 24.3819 39.7774L23.4992 37.9827Z" fill="#262626" mask="url(#path-1-outside-1_1152_728)"/>
</svg>
