<svg width="38" height="45" viewBox="0 0 38 45" fill="none" xmlns="http://www.w3.org/2000/svg">
<mask id="path-1-outside-1_1152_945" maskUnits="userSpaceOnUse" x="-1" y="-1" width="38" height="42" fill="black">
<rect fill="white" x="-1" y="-1" width="38" height="45"/>
<path d="M0.380563 31.096V26.056L19.7006 0.799997H27.4846L8.44456 26.056L4.80456 24.936H35.8846V31.096H0.380563ZM21.8846 40V31.096L22.1086 24.936V17.04H28.9406V40H21.8846Z"/>
</mask>
<path d="M0.380562 31.096H-0.619438V32.096H0.380562V31.096ZM0.380562 26.056L-0.413694 25.4484L-0.619438 25.7174V26.056H0.380562ZM19.7006 0.799997V-0.200003H19.2065L18.9063 0.192416L19.7006 0.799997ZM27.4846 0.799997L28.2831 1.40198L29.4908 -0.200003H27.4846V0.799997ZM8.44456 26.056L8.15048 27.0118L8.82085 27.218L9.24307 26.658L8.44456 26.056ZM4.80456 24.936V23.936L4.51048 25.8918L4.80456 24.936ZM35.8846 24.936H36.8846V23.936H35.8846V24.936ZM35.8846 31.096V32.096H36.8846V31.096H35.8846ZM21.8846 40H20.8846V41H21.8846V40ZM21.8846 31.096L20.8852 31.0597L20.8846 31.0778V31.096H21.8846ZM22.1086 24.936L23.1079 24.9723L23.1086 24.9542V24.936H22.1086ZM22.1086 17.04V16.04H21.1086V17.04H22.1086ZM28.9406 17.04H29.9406V16.04H28.9406V17.04ZM28.9406 40V41H29.9406V40H28.9406ZM1.38056 31.096V26.056H-0.619438V31.096H1.38056ZM1.17482 26.6636L20.4948 1.40758L18.9063 0.192416L-0.413694 25.4484L1.17482 26.6636ZM19.7006 1.8H27.4846V-0.200003H19.7006V1.8ZM26.6861 0.198016L7.64605 25.454L9.24307 26.658L28.2831 1.40198L26.6861 0.198016ZM8.73865 25.1002L5.09865 23.9802L4.51048 25.8918L8.15048 27.0118L8.73865 25.1002ZM4.80456 25.936H35.8846V23.936H4.80456V25.936ZM34.8846 24.936V31.096H36.8846V24.936H34.8846ZM35.8846 30.096H0.380562V32.096H35.8846V30.096ZM22.8846 40V31.096H20.8846V40H22.8846ZM22.8839 31.1323L23.1079 24.9723L21.1092 24.8997L20.8852 31.0597L22.8839 31.1323ZM23.1086 24.936V17.04H21.1086V24.936H23.1086ZM22.1086 18.04H28.9406V16.04H22.1086V18.04ZM27.9406 17.04V40H29.9406V17.04H27.9406ZM28.9406 39H21.8846V41H28.9406V39Z" fill="#262626" mask="url(#path-1-outside-1_1152_945)"/>
</svg>
