<svg width="31" height="43" viewBox="0 0 31 41" fill="none" xmlns="http://www.w3.org/2000/svg">
<mask id="path-1-outside-1_1152_934" maskUnits="userSpaceOnUse" x="-2" y="-1" width="34" height="43" fill="black">
<rect fill="white" x="-2" y="-1" width="34" height="43"/>
<path d="M14.9326 40.56C12.1699 40.56 9.46323 40.168 6.81256 39.384C4.19923 38.5627 1.99656 37.4427 0.204563 36.024L3.28456 30.368C4.70323 31.5253 6.42056 32.4587 8.43656 33.168C10.4899 33.8773 12.6179 34.232 14.8206 34.232C17.3966 34.232 19.4126 33.6907 20.8686 32.608C22.3619 31.5253 23.1086 30.0693 23.1086 28.24C23.1086 27.008 22.7912 25.9253 22.1566 24.992C21.5592 24.0587 20.4766 23.3493 18.9086 22.864C17.3779 22.3787 15.2686 22.136 12.5806 22.136H3.11656L5.13256 0.799997H28.1486V6.904H7.82056L11.6286 3.432L10.1166 19.392L6.30856 15.976H14.2046C18.0872 15.976 21.2046 16.4987 23.5566 17.544C25.9459 18.552 27.6819 19.9707 28.7646 21.8C29.8846 23.592 30.4446 25.6453 30.4446 27.96C30.4446 30.2373 29.8846 32.328 28.7646 34.232C27.6446 36.136 25.9272 37.6667 23.6126 38.824C21.3352 39.9813 18.4419 40.56 14.9326 40.56Z"/>
</mask>
<path d="M6.81256 39.384L6.51274 40.338L6.52081 40.3405L6.52893 40.3429L6.81256 39.384ZM0.204563 36.024L-0.673665 35.5458L-1.07641 36.2853L-0.416141 36.808L0.204563 36.024ZM3.28456 30.368L3.91669 29.5931L2.98276 28.8312L2.40634 29.8898L3.28456 30.368ZM8.43656 33.168L8.10465 34.1113L8.11004 34.1132L8.43656 33.168ZM20.8686 32.608L20.2816 31.7983L20.2719 31.8055L20.8686 32.608ZM22.1566 24.992L21.3143 25.5311L21.3218 25.5428L21.3296 25.5543L22.1566 24.992ZM18.9086 22.864L18.6063 23.8173L18.6129 23.8193L18.9086 22.864ZM3.11656 22.136L2.121 22.0419L2.01762 23.136H3.11656V22.136ZM5.13256 0.799997V-0.200003H4.2226L4.137 0.705928L5.13256 0.799997ZM28.1486 0.799997H29.1486V-0.200003H28.1486V0.799997ZM28.1486 6.904V7.904H29.1486V6.904H28.1486ZM7.82056 6.904L7.14681 6.16504L5.23957 7.904H7.82056V6.904ZM11.6286 3.432L12.6241 3.52631L12.8683 0.948357L10.9548 2.69304L11.6286 3.432ZM10.1166 19.392L9.44881 20.1364L10.9251 21.4607L11.1121 19.4863L10.1166 19.392ZM6.30856 15.976V14.976H3.69625L5.64081 16.7204L6.30856 15.976ZM23.5566 17.544L23.1504 18.4578L23.1591 18.4617L23.1679 18.4654L23.5566 17.544ZM28.7646 21.8L27.904 22.3093L27.9101 22.3197L27.9166 22.33L28.7646 21.8ZM28.7646 34.232L27.9026 33.725L28.7646 34.232ZM23.6126 38.824L23.1653 37.9296L23.1595 37.9325L23.6126 38.824ZM14.9326 39.56C12.266 39.56 9.65483 39.1818 7.09619 38.4251L6.52893 40.3429C9.27163 41.1542 12.0738 41.56 14.9326 41.56V39.56ZM7.11239 38.43C4.59295 37.6382 2.50465 36.5695 0.825266 35.24L-0.416141 36.808C1.48847 38.3159 3.80551 39.4871 6.51274 40.338L7.11239 38.43ZM1.08279 36.5022L4.16279 30.8462L2.40634 29.8898L-0.673665 35.5458L1.08279 36.5022ZM2.65244 31.1429C4.17429 32.3844 5.99748 33.3699 8.10466 34.1113L8.76847 32.2247C6.84364 31.5474 5.23217 30.6663 3.91669 29.5931L2.65244 31.1429ZM8.11004 34.1132C10.2699 34.8593 12.5083 35.232 14.8206 35.232V33.232C12.7275 33.232 10.7099 32.8953 8.76308 32.2228L8.11004 34.1132ZM14.8206 35.232C17.524 35.232 19.7778 34.6653 21.4653 33.4105L20.2719 31.8055C19.0474 32.7161 17.2691 33.232 14.8206 33.232V35.232ZM21.4555 33.4176C23.2058 32.1487 24.1086 30.3929 24.1086 28.24H22.1086C22.1086 29.7457 21.518 30.902 20.2816 31.7984L21.4555 33.4176ZM24.1086 28.24C24.1086 26.8267 23.7413 25.5441 22.9835 24.4297L21.3296 25.5543C21.8412 26.3066 22.1086 27.1893 22.1086 28.24H24.1086ZM22.9988 24.4529C22.2253 23.2442 20.8926 22.4313 19.2042 21.9087L18.6129 23.8193C20.0605 24.2674 20.8932 24.8731 21.3143 25.5311L22.9988 24.4529ZM19.2108 21.9108C17.5386 21.3806 15.3119 21.136 12.5806 21.136V23.136C15.2252 23.136 17.2172 23.3768 18.6063 23.8172L19.2108 21.9108ZM12.5806 21.136H3.11656V23.136H12.5806V21.136ZM4.11213 22.2301L6.12813 0.894067L4.137 0.705928L2.121 22.0419L4.11213 22.2301ZM5.13256 1.8H28.1486V-0.200003H5.13256V1.8ZM27.1486 0.799997V6.904H29.1486V0.799997H27.1486ZM28.1486 5.904H7.82056V7.904H28.1486V5.904ZM8.49432 7.64295L12.3023 4.17095L10.9548 2.69304L7.14681 6.16504L8.49432 7.64295ZM10.633 3.33768L9.12102 19.2977L11.1121 19.4863L12.6241 3.52631L10.633 3.33768ZM10.7843 18.6476L6.97632 15.2316L5.64081 16.7204L9.44881 20.1364L10.7843 18.6476ZM6.30856 16.976H14.2046V14.976H6.30856V16.976ZM14.2046 16.976C18.0118 16.976 20.9744 17.4907 23.1504 18.4578L23.9627 16.6302C21.4347 15.5066 18.1626 14.976 14.2046 14.976V16.976ZM23.1679 18.4654C25.4042 19.4088 26.9526 20.7018 27.904 22.3093L29.6251 21.2907C28.4112 19.2395 26.4876 17.6952 23.9453 16.6226L23.1679 18.4654ZM27.9166 22.33C28.9279 23.9481 29.4446 25.8142 29.4446 27.96H31.4446C31.4446 25.4764 30.8413 23.2359 29.6126 21.27L27.9166 22.33ZM29.4446 27.96C29.4446 30.0648 28.9293 31.9796 27.9026 33.725L29.6265 34.739C30.8398 32.6764 31.4446 30.4099 31.4446 27.96H29.4446ZM27.9026 33.725C26.8964 35.4356 25.3375 36.8435 23.1654 37.9296L24.0598 39.7184C26.517 38.4898 28.3927 36.8364 29.6265 34.739L27.9026 33.725ZM23.1595 37.9325C21.065 38.9969 18.3402 39.56 14.9326 39.56V41.56C18.5436 41.56 21.6055 40.9657 24.0656 39.7155L23.1595 37.9325Z" fill="#262626" mask="url(#path-1-outside-1_1152_934)"/>
</svg>
