<svg width="36" height="45" viewBox="0 0 36 45" fill="none" xmlns="http://www.w3.org/2000/svg">
<mask id="path-1-outside-1_1152_940" maskUnits="userSpaceOnUse" x="-1" y="-1" width="35" height="43" fill="black">
<rect fill="white" x="-1" y="-1" width="36" height="45"/>
<path d="M17.9086 40.56C14.3619 40.56 11.3192 39.8133 8.78056 38.32C6.2419 36.7893 4.30056 34.5867 2.95656 31.712C1.61256 28.8373 0.940563 25.2907 0.940563 21.072C0.940563 16.592 1.74323 12.8027 3.34856 9.704C4.99123 6.60533 7.2499 4.25333 10.1246 2.648C13.0366 1.04266 16.3779 0.239998 20.1486 0.239998C22.1272 0.239998 24.0126 0.445331 25.8046 0.855997C27.6339 1.26666 29.1832 1.90133 30.4526 2.76L27.7646 8.248C26.6819 7.53867 25.5059 7.05333 24.2366 6.792C23.0046 6.49333 21.6979 6.344 20.3166 6.344C16.6206 6.344 13.6899 7.48267 11.5246 9.76C9.35923 12.0373 8.27656 15.3973 8.27656 19.84C8.27656 20.5493 8.29523 21.3893 8.33256 22.36C8.3699 23.2933 8.50056 24.2453 8.72456 25.216L6.48456 22.752C7.15656 21.2213 8.07123 19.952 9.22856 18.944C10.4232 17.8987 11.8232 17.1147 13.4286 16.592C15.0712 16.0693 16.8446 15.808 18.7486 15.808C21.3246 15.808 23.6206 16.312 25.6366 17.32C27.6526 18.2907 29.2579 19.6907 30.4526 21.52C31.6472 23.312 32.2446 25.4213 32.2446 27.848C32.2446 30.424 31.6099 32.664 30.3406 34.568C29.0712 36.472 27.3539 37.9467 25.1886 38.992C23.0232 40.0373 20.5966 40.56 17.9086 40.56ZM17.5166 34.848C19.0099 34.848 20.3352 34.5867 21.4926 34.064C22.6499 33.504 23.5459 32.72 24.1806 31.712C24.8526 30.704 25.1886 29.528 25.1886 28.184C25.1886 26.1307 24.4792 24.5067 23.0606 23.312C21.6419 22.1173 19.7379 21.52 17.3486 21.52C15.7806 21.52 14.3992 21.8187 13.2046 22.416C12.0472 22.976 11.1139 23.76 10.4046 24.768C9.73256 25.776 9.39656 26.9333 9.39656 28.24C9.39656 29.4347 9.7139 30.536 10.3486 31.544C10.9832 32.552 11.8979 33.3547 13.0926 33.952C14.3246 34.5493 15.7992 34.848 17.5166 34.848Z"/>
</mask>
<path d="M8.78056 38.32L8.26419 39.1764L8.27354 39.1819L8.78056 38.32ZM2.95656 31.712L3.86245 31.2885L2.95656 31.712ZM3.34856 9.704L2.46499 9.2356L2.46065 9.24399L3.34856 9.704ZM10.1246 2.648L9.64178 1.77224L9.637 1.77491L10.1246 2.648ZM25.8046 0.855997L25.5812 1.83074L25.5855 1.83171L25.8046 0.855997ZM30.4526 2.76L31.3506 3.19987L31.7331 2.41894L31.0129 1.93172L30.4526 2.76ZM27.7646 8.248L27.2165 9.08446L28.1643 9.70538L28.6626 8.68787L27.7646 8.248ZM24.2366 6.792L24.001 7.76385L24.0179 7.76795L24.0349 7.77145L24.2366 6.792ZM11.5246 9.76L12.2493 10.4491L11.5246 9.76ZM8.33256 22.36L7.3333 22.3984L7.33336 22.4L8.33256 22.36ZM8.72456 25.216L7.98462 25.8887L10.5598 28.7213L9.69895 24.9911L8.72456 25.216ZM6.48456 22.752L5.56892 22.35L5.30798 22.9444L5.74462 23.4247L6.48456 22.752ZM9.22856 18.944L9.88535 19.6981L9.88707 19.6966L9.22856 18.944ZM13.4286 16.592L13.1254 15.6391L13.119 15.6411L13.4286 16.592ZM25.6366 17.32L25.1894 18.2144L25.196 18.2178L25.2027 18.221L25.6366 17.32ZM30.4526 21.52L29.6153 22.0668L29.6205 22.0747L30.4526 21.52ZM30.3406 34.568L29.5085 34.0133H29.5085L30.3406 34.568ZM25.1886 38.992L25.6233 39.8926L25.1886 38.992ZM21.4926 34.064L21.9042 34.9754L21.9162 34.9699L21.9281 34.9642L21.4926 34.064ZM24.1806 31.712L23.3485 31.1573L23.3413 31.1682L23.3343 31.1792L24.1806 31.712ZM23.0606 23.312L22.4164 24.0769L23.0606 23.312ZM13.2046 22.416L13.6402 23.3162L13.6518 23.3104L13.2046 22.416ZM10.4046 24.768L9.58676 24.1925L9.5795 24.2028L9.57251 24.2133L10.4046 24.768ZM10.3486 31.544L11.1948 31.0112L10.3486 31.544ZM13.0926 33.952L12.6453 34.8465L12.6563 34.8518L13.0926 33.952ZM17.9086 39.56C14.5037 39.56 11.6439 38.8442 9.28758 37.4581L8.27354 39.1819C10.9945 40.7825 14.2201 41.56 17.9086 41.56V39.56ZM9.29691 37.4636C6.94031 36.0427 5.12863 33.9967 3.86245 31.2885L2.05068 32.1355C3.47249 35.1766 5.54349 37.5359 8.26422 39.1764L9.29691 37.4636ZM3.86245 31.2885C2.59732 28.5825 1.94056 25.1902 1.94056 21.072H-0.0594368C-0.0594368 25.3911 0.627806 29.0922 2.05068 32.1355L3.86245 31.2885ZM1.94056 21.072C1.94056 16.708 2.72271 13.0859 4.23648 10.164L2.46065 9.24399C0.763752 12.5194 -0.0594368 16.476 -0.0594368 21.072H1.94056ZM4.23209 10.1724C5.79068 7.23232 7.91681 5.02626 10.6121 3.52108L9.637 1.77491C6.58298 3.4804 4.19178 5.97835 2.46503 9.23562L4.23209 10.1724ZM10.6073 3.52374C13.3526 2.01032 16.5238 1.24 20.1486 1.24V-0.760002C16.232 -0.760002 12.7205 0.0750103 9.64178 1.77225L10.6073 3.52374ZM20.1486 1.24C22.0577 1.24 23.8678 1.43808 25.5812 1.83073L26.0279 -0.118736C24.1573 -0.547416 22.1967 -0.760002 20.1486 -0.760002V1.24ZM25.5855 1.83171C27.3193 2.22093 28.7467 2.81338 29.8923 3.58828L31.0129 1.93172C29.6197 0.989282 27.9485 0.312397 26.0236 -0.11972L25.5855 1.83171ZM29.5545 2.32013L26.8665 7.80813L28.6626 8.68787L31.3506 3.19987L29.5545 2.32013ZM28.3126 7.41154C27.1244 6.63305 25.8308 6.09925 24.4382 5.81254L24.0349 7.77145C25.181 8.00741 26.2394 8.44428 27.2165 9.08446L28.3126 7.41154ZM24.4722 5.82015C23.1565 5.50119 21.7702 5.344 20.3166 5.344V7.344C21.6256 7.344 22.8526 7.48547 24.001 7.76385L24.4722 5.82015ZM20.3166 5.344C16.399 5.344 13.1873 6.56004 10.7999 9.07094L12.2493 10.4491C14.1925 8.40529 16.8421 7.344 20.3166 7.344V5.344ZM10.7999 9.07094C8.39598 11.5992 7.27656 15.2473 7.27656 19.84H9.27656C9.27656 15.5473 10.3225 12.4755 12.2493 10.4491L10.7999 9.07094ZM7.27656 19.84C7.27656 20.5658 7.29564 21.4193 7.3333 22.3984L9.33183 22.3216C9.29482 21.3594 9.27656 20.5328 9.27656 19.84H7.27656ZM7.33336 22.4C7.37334 23.3995 7.51308 24.4135 7.75017 25.4409L9.69895 24.9911C9.48804 24.0772 9.36645 23.1871 9.33176 22.32L7.33336 22.4ZM9.4645 24.5433L7.2245 22.0793L5.74462 23.4247L7.98462 25.8887L9.4645 24.5433ZM7.40021 23.154C8.0183 21.7461 8.84884 20.6008 9.88534 19.6981L8.57178 18.1899C7.29362 19.3032 6.29483 20.6965 5.56892 22.35L7.40021 23.154ZM9.88707 19.6966C10.9737 18.7458 12.253 18.0264 13.7381 17.5429L13.119 15.6411C11.3934 16.2029 9.8728 17.0515 8.57006 18.1914L9.88707 19.6966ZM13.7318 17.5449C15.2667 17.0565 16.9368 16.808 18.7486 16.808V14.808C16.7523 14.808 14.8757 15.0821 13.1254 15.6391L13.7318 17.5449ZM18.7486 16.808C21.1916 16.808 23.3308 17.2852 25.1894 18.2144L26.0838 16.4256C23.9103 15.3388 21.4575 14.808 18.7486 14.808V16.808ZM25.2027 18.221C27.0587 19.1146 28.5228 20.3939 29.6153 22.0668L31.2898 20.9732C29.993 18.9874 28.2465 17.4667 26.0704 16.419L25.2027 18.221ZM29.6205 22.0747C30.6921 23.6821 31.2446 25.5929 31.2446 27.848H33.2446C33.2446 25.2498 32.6023 22.9419 31.2846 20.9653L29.6205 22.0747ZM31.2446 27.848C31.2446 30.2523 30.6549 32.2937 29.5085 34.0133L31.1726 35.1227C32.5649 33.0343 33.2446 30.5957 33.2446 27.848H31.2446ZM29.5085 34.0133C28.3434 35.7609 26.7667 37.1197 24.7538 38.0914L25.6233 39.8926C27.9411 38.7736 29.799 37.1831 31.1726 35.1227L29.5085 34.0133ZM24.7538 38.0914C22.7393 39.064 20.4639 39.56 17.9086 39.56V41.56C20.7292 41.56 23.3071 41.0107 25.6233 39.8926L24.7538 38.0914ZM17.5166 35.848C19.1271 35.848 20.5967 35.5658 21.9042 34.9754L21.081 33.1526C20.0738 33.6075 18.8927 33.848 17.5166 33.848V35.848ZM21.9281 34.9642C23.2401 34.3293 24.2844 33.4239 25.0268 32.2448L23.3343 31.1792C22.8074 32.0161 22.0597 32.6787 21.057 33.1638L21.9281 34.9642ZM25.0126 32.2667C25.8059 31.0767 26.1886 29.703 26.1886 28.184H24.1886C24.1886 29.353 23.8992 30.3313 23.3485 31.1573L25.0126 32.2667ZM26.1886 28.184C26.1886 25.8713 25.3749 23.9536 23.7047 22.5471L22.4164 24.0769C23.5835 25.0597 24.1886 26.39 24.1886 28.184H26.1886ZM23.7047 22.5471C22.059 21.1612 19.9043 20.52 17.3486 20.52V22.52C19.5715 22.52 21.2248 23.0734 22.4164 24.0769L23.7047 22.5471ZM17.3486 20.52C15.6522 20.52 14.1131 20.8437 12.7573 21.5216L13.6518 23.3104C14.6854 22.7936 15.9089 22.52 17.3486 22.52V20.52ZM12.769 21.5158C11.4656 22.1465 10.3981 23.0395 9.58676 24.1925L11.2224 25.3435C11.8296 24.4805 12.6289 23.8055 13.6401 23.3162L12.769 21.5158ZM9.57251 24.2133C8.78232 25.3986 8.39656 26.7522 8.39656 28.24H10.3966C10.3966 27.1145 10.6828 26.1534 11.2366 25.3227L9.57251 24.2133ZM8.39656 28.24C8.39656 29.6226 8.76689 30.9088 9.50233 32.0768L11.1948 31.0112C10.6609 30.1632 10.3966 29.2467 10.3966 28.24H8.39656ZM9.50233 32.0768C10.2459 33.2578 11.3075 34.1775 12.6453 34.8464L13.5398 33.0576C12.4883 32.5318 11.7206 31.8462 11.1948 31.0112L9.50233 32.0768ZM12.6563 34.8518C14.0544 35.5297 15.6855 35.848 17.5166 35.848V33.848C15.9129 33.848 14.5948 33.569 13.5288 33.0522L12.6563 34.8518Z" fill="#262626" mask="url(#path-1-outside-1_1152_940)"/>
</svg>
