<svg width="82" height="50" viewBox="0 0 82 50" fill="none" xmlns="http://www.w3.org/2000/svg">
<path fill-rule="evenodd" clip-rule="evenodd" d="M5.35156 5.2128L9.39617 50L69.5435 45.3204L65.0616 0L5.35156 5.2128Z" fill="#FD0000"/>
<path d="M12.0859 11.1328V25.3409H19.9366C24.7564 25.3011 27.1613 21.7727 27.1613 18.2394C27.1613 14.706 24.7564 11.1727 19.9366 11.1328H12.0859ZM14.5554 13.2658H19.8373C22.9925 13.2658 24.5725 15.7426 24.5725 18.2394C24.5725 20.7162 22.9925 23.193 19.8373 23.193H14.5554V13.2658ZM29.8544 25.3409H32.3239V14.3422L42.2416 25.3409H44.7309V11.1328H42.2416V22.1365L32.3239 11.1328H29.8544V25.3409ZM46.8377 11.1328V13.2259H53.4959V25.3409H55.9853V13.2259H62.6435V11.1328H46.8377Z" fill="#FEFEFE" stroke="#FEFEFE" stroke-width="0.0647862" stroke-miterlimit="22.9256"/>
<path fill-rule="evenodd" clip-rule="evenodd" d="M27.8516 31.0472L29.3521 43.2618L82.0015 43.4163L80.4861 27.6035L27.8516 31.0472Z" fill="#0300FD"/>
<path d="M40.5801 40.1875V33.1407H39.5118V35.8368C39.2037 35.3235 38.5478 35.0195 37.7677 35.0195C36.2175 35.0195 35.1641 36.081 35.1641 37.6309C35.1641 39.2007 36.2473 40.322 37.7677 40.322C38.5677 40.322 39.2335 39.9981 39.5118 39.4748V40.1875H40.5801ZM39.5018 37.6309C39.5018 38.6476 38.831 39.3552 37.8572 39.3552C36.9031 39.3552 36.2373 38.6575 36.2373 37.6309C36.2373 36.6342 36.8733 35.9913 37.8572 35.9913C38.8509 35.9913 39.5018 36.6342 39.5018 37.6309ZM42.7663 33.5295C42.7663 33.9431 43.0992 34.267 43.5017 34.267C43.9141 34.267 44.2421 33.9331 44.2421 33.5295C44.2421 33.1258 43.9241 32.7969 43.5017 32.7969C43.0794 32.7969 42.7663 33.1258 42.7663 33.5295ZM41.5838 40.1875H45.678V39.3154H44.1824V35.1541H41.5838V36.0212H43.139V39.3154H41.5838V40.1875ZM52.2567 35.0843H50.8108V35.9166C50.463 35.3534 49.7972 35.0096 49.037 35.0096C47.8593 35.0096 46.9848 35.8568 46.9848 36.8734C46.9848 37.3768 47.1985 37.7904 47.437 37.9848C47.0345 38.1143 46.796 38.4084 46.796 38.7572C46.796 39.1011 46.9848 39.4649 47.2681 39.6343C46.8954 39.7788 46.5526 40.0579 46.5526 40.6211C46.5526 41.4483 47.2581 42.1959 49.027 42.1959C50.4829 42.1959 51.8394 41.7424 51.8394 40.5314C51.8394 39.5446 50.9251 39.0811 49.037 39.131C48.0184 39.1609 47.5662 39.0114 47.5662 38.7074C47.5662 38.5778 47.7003 38.4482 47.8792 38.4084C48.1426 38.5778 48.5649 38.6974 49.037 38.6974C50.1698 38.6974 51.094 38.0346 51.094 36.9033C51.094 36.5545 51.0046 36.2305 50.8406 35.9565H52.2567V35.0843ZM49.037 37.8203C48.4009 37.8203 47.9885 37.4615 47.9885 36.8734C47.9885 36.2903 48.4009 35.8867 49.037 35.8867C49.668 35.8867 50.0903 36.2903 50.0903 36.8734C50.0903 37.4615 49.668 37.8203 49.037 37.8203ZM47.8991 39.8785C48.1525 39.9782 48.4308 40.0081 49.037 39.9981C50.1003 39.9782 50.7711 40.0579 50.7711 40.5613C50.7711 41.0347 50.15 41.3586 49.027 41.3586C47.9786 41.3586 47.4072 41.0746 47.4072 40.5413C47.4072 40.2174 47.601 39.9881 47.8991 39.8785ZM54.3188 33.5295C54.3188 33.9431 54.6467 34.267 55.0492 34.267C55.4616 34.267 55.7945 33.9331 55.7945 33.5295C55.7945 33.1258 55.4715 32.7969 55.0492 32.7969C54.6269 32.7969 54.3188 33.1258 54.3188 33.5295ZM53.1312 40.1875H57.2305V39.3154H55.7349V35.1541H53.1312V36.0212H54.6914V39.3154H53.1312V40.1875ZM62.0602 38.3585C62.0602 38.9914 61.7173 39.3752 61.2552 39.3752C60.7633 39.3752 60.5248 38.9416 60.5248 38.2439V36.0312H62.3335V35.1541H60.5248V33.4597H59.4416V34.4863C59.4416 34.9298 59.3919 35.1541 58.9795 35.1541H58.0553V36.0312H59.4416V38.2439C59.4416 39.5247 60.0329 40.3121 61.1956 40.3121C62.2241 40.3121 62.9844 39.714 62.9844 38.7472L62.0602 38.3585ZM66.0004 40.322C66.8799 40.322 67.7047 39.9582 67.8339 39.3951C67.8786 39.7539 68.0774 40.028 68.3706 40.1676C68.6289 40.3021 68.9519 40.322 69.26 40.1975V39.2954C69.1308 39.3253 68.9917 39.3353 68.8823 39.2406C68.7681 39.1509 68.6886 38.9516 68.6886 38.5778V36.7937C68.6886 35.6973 67.8637 35.0096 66.4278 35.0096C65.1856 35.0096 64.2415 35.5279 64.1222 36.3003L65.0862 36.5844C65.1657 36.1907 65.6377 35.9166 66.3681 35.9166C67.0737 35.9166 67.6252 36.1508 67.6252 36.5345C67.6252 36.8934 67.1234 37.0678 65.8762 37.1575C64.6936 37.2472 63.9682 37.8203 63.9682 38.7472C63.9682 39.6642 64.6837 40.322 66.0004 40.322ZM66.0004 39.425C65.4042 39.425 65.0464 39.1708 65.0464 38.7572C65.0464 38.3685 65.3843 38.0944 65.9358 38.0545C66.87 37.9947 67.4464 37.8851 67.6352 37.6608C67.6352 38.7273 66.9544 39.425 66.0004 39.425ZM69.4438 33.973H70.6264V38.2838C70.6264 39.5346 71.3419 40.3121 72.4947 40.3121C73.5729 40.3121 74.2635 39.6542 74.2735 38.5977L73.3592 38.214C73.3493 38.9316 73.0164 39.3752 72.4947 39.3752C72.0027 39.3752 71.7046 38.9615 71.7046 38.2838V33.0361H69.4438V33.973Z" fill="#FEFEFE"/>
<path fill-rule="evenodd" clip-rule="evenodd" d="M19.713 40.1279L19.882 42.7991L4.64266 43.7111L4.46875 41.2642L19.713 40.1279Z" fill="#1C1B1B"/>
<path fill-rule="evenodd" clip-rule="evenodd" d="M0 34.5511L0.546568 39.3054L24.7695 36.3003L24.2229 32.1689L0 34.5511Z" fill="#FECD05"/>
</svg>
