<svg width="54" height="38" viewBox="0 0 54 38" fill="none" xmlns="http://www.w3.org/2000/svg">
<path d="M26.9844 0.126953C26.9844 0.126953 10.126 0.126969 5.89479 1.22643C3.62925 1.85945 1.76375 3.72497 1.13073 6.02383C0.031275 10.2551 0.03125 19.0176 0.03125 19.0176C0.03125 19.0176 0.031275 27.8134 1.13073 31.978C1.76375 34.2768 3.59593 36.109 5.89479 36.7421C10.1593 37.8748 26.9844 37.8749 26.9844 37.8749C26.9844 37.8749 43.8762 37.8749 48.1073 36.7754C50.4062 36.1424 52.2383 34.3435 52.838 32.0113C53.9708 27.8134 53.9708 19.0509 53.9708 19.0509C53.9708 19.0509 54.0041 10.2551 52.838 6.02383C52.2383 3.72497 50.4062 1.89281 48.1073 1.2931C43.8762 0.127006 26.9844 0.126953 26.9844 0.126953ZM21.6203 10.9217L35.6469 19.0176L21.6203 27.0801V10.9217Z" fill="white"/>
</svg>
