<svg width="22" height="22" viewBox="0 0 22 22" fill="none" xmlns="http://www.w3.org/2000/svg">
<path d="M15.7027 10.9989C15.7027 11.9084 15.433 12.7976 14.9277 13.5549C14.4224 14.3121 13.704 14.9036 12.8627 15.2551C12.0214 15.6065 11.0947 15.7024 10.199 15.5304C9.30329 15.3585 8.47849 14.9265 7.82819 14.2886C7.17788 13.6508 6.73107 12.8357 6.54386 11.9455C6.35664 11.0553 6.43737 10.1298 6.77591 9.28526C7.11444 8.44069 7.6957 7.71467 8.44666 7.1984C9.19764 6.68213 10.0848 6.39861 10.9969 6.38345C11.6112 6.37324 12.2214 6.48509 12.7919 6.71246C13.3624 6.93983 13.8818 7.27817 14.3199 7.70777C14.7579 8.13737 15.1057 8.64963 15.3432 9.21466C15.5806 9.77971 15.7028 10.3862 15.7027 10.9989Z" stroke="#262626" stroke-linecap="round" stroke-linejoin="round"/>
<path d="M15.7037 11V13C15.7037 18.3693 24.1434 13.3077 19.7152 6.0154C18.8236 4.49701 17.551 3.23615 16.0226 2.35677C14.4941 1.47741 12.7625 1.00983 10.9979 1C9.51543 1.00456 8.0524 1.33679 6.71415 1.97277C5.37588 2.60874 4.19566 3.53265 3.25844 4.67798C2.32122 5.82331 1.6503 7.16159 1.29398 8.59647C0.93767 10.0314 0.904817 11.5272 1.19779 12.9762C1.49077 14.4253 2.10228 15.7916 2.98831 16.9767C3.87435 18.1619 5.01288 19.1364 6.32194 19.8302C7.63099 20.5239 9.07803 20.9198 10.5589 20.989C12.0397 21.0584 13.5176 20.7993 14.886 20.2308" stroke="#262626" stroke-linecap="round" stroke-linejoin="round"/>
</svg>
