<svg width="20" height="20" viewBox="0 0 20 20" fill="none" xmlns="http://www.w3.org/2000/svg">
<path d="M9.34557 18.3939C8.62779 18.8651 7.77345 19.0716 6.92457 18.9791C6.0757 18.8867 5.28342 18.5009 4.67947 17.8858L4.15332 17.3495C3.91995 17.109 3.78906 16.7843 3.78906 16.4462C3.78906 16.1078 3.91995 15.7834 4.15332 15.5428L6.36868 13.2986C6.60222 13.0616 6.91835 12.9285 7.2479 12.9285C7.57745 12.9285 7.89358 13.0616 8.12712 13.2986C8.36301 13.5365 8.68144 13.67 9.01326 13.67C9.34508 13.67 9.66351 13.5365 9.89941 13.2986L13.4301 9.69948C13.6635 9.45902 13.7944 9.13442 13.7944 8.79616C13.7944 8.45791 13.6635 8.13331 13.4301 7.89284C13.1976 7.65479 13.0671 7.33253 13.0671 6.99658C13.0671 6.66064 13.1976 6.33839 13.4301 6.10032L15.5625 3.84202C15.7983 3.60414 16.1167 3.4707 16.4486 3.4707C16.7804 3.4707 17.0988 3.60414 17.3348 3.84202L17.8609 4.37837C18.475 4.98534 18.8664 5.78867 18.9698 6.65432C19.0731 7.51995 18.8821 8.39552 18.4286 9.1349C16.0141 12.7888 12.93 15.9328 9.34557 18.3939Z" stroke="#262626" stroke-linecap="round" stroke-linejoin="round"/>
<path d="M5.84609 1H1V5.94002" stroke="#262626" stroke-linecap="round" stroke-linejoin="round"/>
<path d="M1 1L7.92295 8.05713" stroke="#262626" stroke-linecap="round" stroke-linejoin="round"/>
</svg>
